<?xml version="1.0" standalone="no"?>
<!DOCTYPE svg PUBLIC "-//W3C//DTD SVG 20010904//EN"
 "http://www.w3.org/TR/2001/REC-SVG-20010904/DTD/svg10.dtd">
<svg version="1.0" xmlns="http://www.w3.org/2000/svg"
 width="700.000000pt" height="700.000000pt" viewBox="0 0 700.000000 700.000000"
 preserveAspectRatio="xMidYMid meet">
<metadata>
Created by potrace 1.11, written by Peter Selinger 2001-2013
</metadata>
<g transform="translate(0.000000,700.000000) scale(0.100000,-0.100000)"
fill="#000000" stroke="none">
<path d="M3278 6995 c-2 -1 -41 -5 -88 -9 -47 -4 -96 -8 -110 -10 -14 -2 -46
-7 -71 -10 -25 -4 -57 -9 -70 -11 -13 -2 -42 -6 -64 -10 -22 -3 -47 -7 -55
-10 -8 -2 -26 -6 -40 -9 -71 -12 -220 -52 -342 -91 -793 -256 -1455 -768
-1899 -1470 -78 -123 -184 -320 -233 -435 -16 -36 -36 -83 -46 -105 -48 -109
-127 -351 -156 -475 -21 -91 -54 -254 -59 -290 -3 -25 -8 -56 -11 -70 -5 -29
-10 -70 -21 -190 -15 -162 -8 -590 12 -711 2 -13 6 -46 10 -74 9 -76 16 -116
25 -160 5 -22 11 -53 14 -70 28 -154 108 -418 185 -609 45 -112 163 -349 222
-448 110 -182 303 -449 397 -546 171 -181 273 -280 367 -357 33 -28 62 -52 65
-55 27 -29 364 -262 410 -283 8 -4 31 -17 50 -28 64 -39 303 -157 395 -195
329 -135 686 -221 1045 -252 174 -15 546 -8 720 14 286 36 690 142 905 239 33
15 92 41 130 58 169 76 267 130 473 266 648 425 1150 1086 1390 1831 62 193
120 442 137 595 4 33 9 69 11 80 19 95 26 539 11 710 -60 698 -340 1382 -785
1919 -129 155 -315 344 -442 447 -36 30 -67 57 -70 60 -13 16 -248 182 -342
241 -343 216 -779 388 -1173 464 -22 4 -47 9 -55 10 -8 2 -33 6 -55 9 -22 2
-51 7 -65 10 -14 3 -52 8 -85 11 -33 3 -73 8 -90 10 -34 5 -542 14 -547 9z
m462 -1650 c14 -3 39 -7 55 -9 188 -26 473 -128 640 -229 330 -198 574 -462
734 -790 76 -157 135 -332 155 -457 3 -19 8 -48 12 -65 34 -172 25 -469 -21
-700 -14 -71 -51 -187 -90 -284 -229 -571 -718 -988 -1318 -1125 -37 -9 -84
-18 -105 -21 -20 -2 -48 -7 -62 -10 -45 -11 -353 -13 -435 -4 -206 23 -425 84
-595 166 -157 76 -291 163 -423 276 -92 79 -123 111 -219 224 -67 80 -98 121
-143 194 -129 209 -232 484 -261 695 -3 27 -8 53 -11 57 -10 16 -11 371 -2
437 16 122 18 135 24 160 3 14 8 36 11 50 61 306 266 677 504 910 303 297 700
486 1110 529 79 9 397 6 440 -4z"/>
<path d="M3370 4944 c-14 -2 -59 -9 -100 -15 -265 -38 -555 -178 -749 -361
-304 -289 -464 -648 -465 -1048 -1 -168 7 -246 38 -370 140 -551 583 -969
1141 -1075 109 -20 321 -27 435 -13 651 79 1172 588 1266 1238 12 80 11 320
-1 400 -28 187 -88 361 -176 515 -58 102 -69 116 -159 223 -64 77 -73 85 -146
152 -190 172 -472 304 -739 345 -49 7 -310 14 -345 9z"/>
</g>
</svg>
